<?xml version="1.0" standalone="no"?>
<!DOCTYPE svg PUBLIC "-//W3C//DTD SVG 20010904//EN"
 "http://www.w3.org/TR/2001/REC-SVG-20010904/DTD/svg10.dtd">
<svg version="1.0" xmlns="http://www.w3.org/2000/svg"
 width="405.000000pt" height="175.000000pt" viewBox="0 0 405.000000 175.000000"
 preserveAspectRatio="xMidYMid meet">
<metadata>
Created by potrace 1.13, written by Peter Selinger 2001-2015
</metadata>
<g transform="translate(0.000000,175.000000) scale(0.100000,-0.100000)"
fill="#000000" stroke="none">
<path d="M980 1660 c0 -6 -31 -10 -72 -10 -40 -1 -142 -1 -226 -1 -113 0 -161
-4 -189 -15 -22 -10 -49 -13 -69 -9 -20 3 -56 -1 -89 -10 -31 -9 -63 -14 -71
-11 -9 3 -12 1 -9 -4 3 -6 -1 -10 -9 -10 -31 0 -53 -56 -33 -87 9 -14 194 -16
203 -2 3 5 22 9 43 9 61 0 71 -32 71 -222 0 -84 5 -173 11 -197 7 -33 7 -46
-2 -52 -10 -6 -9 -22 3 -76 8 -37 13 -89 11 -115 -3 -31 -1 -48 6 -48 6 0 11
-20 11 -48 0 -32 4 -49 13 -49 6 0 19 -4 28 -7 25 -11 59 31 59 70 0 18 4 34
9 36 6 2 6 23 0 53 -6 28 -12 95 -14 150 -2 55 -8 114 -13 130 -5 17 -7 95 -6
175 3 198 3 192 14 185 6 -3 10 -1 10 4 0 6 10 11 23 11 18 0 19 2 7 10 -16
10 -11 10 188 10 54 1 92 5 92 11 0 5 25 9 59 7 45 -2 62 2 77 16 16 16 16 21
3 44 -8 14 -27 33 -44 43 -33 19 -95 25 -95 9z m-323 -672 c-2 -13 -4 -5 -4
17 -1 22 1 32 4 23 2 -10 2 -28 0 -40z"/>
<path d="M3540 1460 c0 -5 -13 -10 -30 -10 -58 0 -90 -74 -71 -162 6 -24 10
-61 10 -83 0 -54 17 -138 36 -174 8 -17 15 -45 15 -63 0 -47 23 -77 55 -71 20
4 25 11 25 33 0 34 36 52 54 27 6 -8 25 -23 42 -33 37 -23 95 -69 137 -109 41
-39 85 -61 96 -49 5 5 12 19 15 31 6 18 -3 32 -45 72 -29 28 -68 58 -86 66
-18 9 -33 20 -33 26 0 5 -19 22 -43 37 -41 26 -121 106 -101 101 16 -4 131 24
146 35 8 6 29 31 46 55 31 43 32 47 32 145 0 102 0 102 -29 119 -23 14 -54 17
-150 17 -74 0 -121 -4 -121 -10z m220 -135 c0 -82 -14 -111 -58 -126 -44 -15
-133 -21 -150 -11 -7 5 -19 42 -26 83 -14 72 -14 75 6 97 20 20 31 22 125 22
l103 0 0 -65z"/>
<path d="M3037 1440 c-35 -11 -57 -28 -57 -46 0 -8 -9 -23 -20 -34 -16 -16
-20 -33 -20 -90 0 -40 -4 -70 -10 -70 -13 0 -12 -52 1 -109 6 -27 6 -47 1 -50
-5 -3 -10 -50 -10 -104 0 -77 4 -102 17 -118 16 -19 20 -20 61 -8 25 7 50 14
55 14 6 1 33 6 60 12 78 18 105 21 105 12 0 -16 59 -9 95 11 20 11 42 20 51
20 11 0 14 9 12 38 -3 35 -5 37 -40 40 -21 2 -38 7 -38 13 0 13 -67 11 -76 -2
-9 -15 -123 -6 -152 12 -26 16 -28 46 -6 77 11 17 25 22 56 22 55 0 117 43
118 81 0 21 -63 47 -114 48 -44 1 -66 15 -66 43 0 48 63 71 165 62 l70 -6 18
31 c10 17 16 39 13 49 -8 24 -99 44 -196 44 -58 0 -67 2 -40 8 34 7 34 7 5 8
-16 0 -43 -4 -58 -8z"/>
<path d="M1480 1410 c-68 -7 -100 -17 -100 -30 0 -5 -14 -12 -32 -15 -17 -4
-53 -23 -80 -41 -26 -19 -48 -31 -48 -27 0 5 -9 -10 -19 -32 -10 -22 -26 -49
-36 -58 -14 -14 -18 -35 -18 -95 0 -54 -2 -68 -7 -47 -4 17 -8 22 -9 12 -2
-33 22 -111 41 -131 10 -11 18 -26 18 -33 0 -7 5 -13 10 -13 6 0 10 -10 10
-22 0 -12 3 -19 6 -15 9 8 54 -48 54 -67 0 -9 3 -16 8 -17 4 0 14 -2 22 -5 8
-2 30 -7 48 -10 17 -4 32 -10 32 -15 0 -16 56 -9 101 13 24 11 50 21 57 21 6
0 12 5 12 11 0 6 15 29 34 51 19 21 39 56 45 77 7 21 16 38 20 38 5 0 14 14
20 30 5 17 15 30 20 30 6 0 11 5 11 10 0 6 -7 10 -15 10 -8 0 -15 5 -15 10 0
6 6 10 13 10 13 0 45 -57 51 -90 5 -30 40 -89 48 -84 5 3 8 2 7 -3 -1 -4 -1
-12 0 -18 2 -15 47 -65 59 -65 5 0 12 -7 15 -15 10 -23 67 -33 114 -20 23 7
43 9 45 4 4 -11 78 11 78 23 0 4 8 8 18 8 22 0 58 32 67 59 3 10 12 22 21 25
8 3 20 18 26 33 13 30 14 38 17 93 1 19 5 30 9 23 10 -16 7 188 -3 212 -5 11
-24 35 -42 52 -18 18 -33 37 -33 42 0 6 -18 16 -40 22 -22 7 -40 15 -40 19 0
4 -18 12 -40 18 -23 5 -40 6 -40 1 0 -5 -18 -9 -40 -9 -22 0 -40 4 -40 9 0 14
-74 -9 -83 -25 -4 -8 -13 -14 -19 -14 -6 0 -36 -25 -65 -55 -30 -31 -58 -53
-64 -50 -5 4 -9 -6 -10 -22 l-1 -28 -9 30 c-5 17 -7 36 -4 43 13 35 -63 127
-111 134 -16 3 -58 2 -94 -2z m68 -134 c0 -6 5 -29 11 -51 14 -52 14 -102 0
-107 -6 -2 -11 -29 -11 -62 0 -36 -4 -53 -9 -44 -6 9 -9 6 -10 -12 -1 -14 -3
-31 -3 -38 -2 -20 -56 -83 -67 -77 -5 4 -9 2 -9 -4 0 -6 -11 -13 -23 -16 -32
-8 -87 23 -114 66 -13 19 -28 40 -34 48 -28 32 -3 242 25 213 4 -4 7 -2 6 3
-5 24 2 33 33 46 17 7 37 14 42 14 26 2 64 18 60 25 -3 4 19 8 48 8 32 -1 54
-5 55 -12z m478 6 c-5 -8 53 -34 65 -29 3 1 13 -5 22 -14 20 -21 46 -187 31
-197 -6 -4 -17 -28 -24 -54 -8 -26 -16 -46 -19 -45 -4 1 -25 -11 -48 -27 -35
-23 -49 -27 -78 -22 -19 4 -35 11 -35 16 0 6 -6 10 -13 10 -7 0 -19 9 -27 20
-8 11 -20 20 -26 20 -6 0 -14 14 -18 32 -3 17 -13 39 -21 48 -19 21 -31 80
-16 80 6 0 11 11 11 24 0 14 5 28 10 31 6 4 10 12 9 18 -1 7 -1 19 0 27 1 13
2 13 11 0 6 -9 10 -10 10 -3 0 21 63 57 110 64 25 3 46 7 48 8 2 0 1 -3 -2 -7z"/>
<path d="M2532 1392 c-13 -2 -26 -10 -29 -18 -3 -8 -10 -14 -17 -14 -10 0 -56
-62 -56 -75 0 -3 -8 -15 -19 -26 -10 -11 -21 -41 -25 -67 -18 -145 -18 -152
-7 -152 7 0 11 -23 11 -62 0 -71 36 -164 67 -174 10 -3 29 -11 42 -17 14 -7
58 -11 104 -9 77 3 80 4 114 40 19 20 41 55 49 77 18 54 18 174 -1 201 -14 21
-29 24 -210 40 -27 3 -51 9 -53 15 -2 5 -10 9 -18 9 -24 0 -17 56 11 78 13 10
25 25 27 33 6 29 39 48 72 42 31 -6 65 -37 66 -60 0 -17 37 -35 58 -29 27 9
46 70 31 98 -30 56 -51 68 -124 71 -39 1 -80 1 -93 -1z m48 -337 c25 -2 62 -6
83 -10 36 -7 37 -8 37 -54 0 -29 -9 -61 -23 -86 -20 -35 -28 -41 -67 -46 -101
-15 -132 13 -141 126 -3 38 -4 74 -1 78 2 5 18 5 35 1 18 -4 52 -8 77 -9z"/>
<path d="M1597 694 c-3 -3 -27 -8 -53 -10 -26 -3 -64 -12 -83 -22 -21 -10 -55
-16 -81 -15 -55 3 -90 -13 -90 -42 0 -18 7 -21 42 -24 23 -1 46 -7 49 -13 5
-8 22 -6 56 7 26 9 62 18 78 19 26 1 30 -3 33 -28 2 -15 -1 -26 -6 -22 -5 3
-15 -6 -22 -19 -7 -14 -17 -25 -22 -25 -4 0 -8 -8 -8 -19 0 -10 -13 -29 -30
-42 -16 -13 -30 -29 -30 -35 0 -7 -12 -25 -27 -41 -16 -17 -39 -50 -52 -74
-14 -24 -29 -47 -33 -50 -5 -3 -8 -21 -6 -40 2 -28 8 -35 28 -37 14 -2 30 -8
36 -13 13 -11 64 -9 80 3 6 4 37 8 70 8 139 0 183 16 184 67 0 20 -4 21 -72
17 -40 -3 -97 -4 -125 -4 -30 1 -53 -3 -53 -9 0 -6 -7 -8 -15 -5 -8 4 -15 13
-15 20 0 21 41 81 88 130 6 7 12 15 12 18 0 6 24 36 48 61 6 8 12 21 12 29 0
9 5 16 10 16 6 0 10 7 10 16 0 8 4 13 9 10 4 -3 14 13 21 34 7 22 16 40 20 40
14 0 22 71 9 86 -11 14 -60 20 -72 8z"/>
<path d="M958 648 c-24 -8 -28 -15 -28 -49 0 -21 5 -39 10 -39 6 0 10 -9 10
-19 0 -11 5 -23 10 -26 6 -3 10 -17 10 -31 0 -14 4 -23 9 -20 10 7 29 -99 33
-182 4 -65 24 -91 57 -70 18 11 21 23 21 88 0 66 4 80 30 120 16 25 38 54 48
65 39 41 62 84 62 114 0 26 -4 31 -23 31 -22 0 -77 -49 -77 -68 0 -12 -44 -52
-56 -52 -21 0 -62 59 -69 99 -8 48 -11 51 -47 39z"/>
<path d="M568 603 c-10 -3 -18 -8 -19 -11 0 -4 -2 -16 -4 -26 -4 -23 25 -77
37 -70 4 3 8 -4 8 -15 0 -12 4 -21 9 -21 12 0 37 -61 32 -80 -1 -8 -13 -28
-25 -45 -63 -86 -78 -135 -40 -135 25 0 84 44 90 67 3 12 14 29 25 39 18 16
20 16 39 -6 11 -13 20 -27 20 -31 0 -4 19 -26 43 -48 49 -48 80 -51 85 -8 2
15 -1 27 -5 27 -5 0 -19 18 -32 40 -12 22 -26 40 -31 40 -15 0 -38 65 -33 93
3 15 9 27 13 27 4 0 13 18 20 40 7 21 16 37 21 35 4 -3 10 8 14 24 7 34 -9 71
-30 71 -16 0 -49 -33 -51 -50 -1 -6 -2 -15 -3 -21 0 -5 -5 -8 -10 -4 -5 3 -12
-4 -16 -15 -13 -41 -73 -12 -96 47 -9 26 -37 41 -61 36z"/>
<path d="M333 217 c-12 -26 -6 -78 11 -89 6 -4 27 -8 46 -8 52 0 65 26 38 79
-17 35 -25 41 -52 41 -25 0 -35 -6 -43 -23z"/>
</g>
</svg>
